<?xml version="1.0" encoding="utf-8"?>
<svg xmlns="http://www.w3.org/2000/svg" version="1.1" width="1000" height="800">

<line x1="20" y1="20" x2="1000" y2="20" stroke="black" />
<text x="40" y="990" fill="black" >y</text>
<text x="990" y="5" fill="black" >x</text>
<line x1="20" y1="20" x2="20" y2="800" stroke="black" />
<line x1="1000" y1="20" x2="980" y2="0" stroke="black" />
<line x1="1000" y1="20" x2="980" y2="40" stroke="black" />
<line x1="20" y1="800" x2="0" y2="780" stroke="black" />
<line x1="20" y1="800" x2="40" y2="780" stroke="black" />
<circle cx="130" cy="220" r="5" fill="url(#redball)" />
<circle cx="150" cy="170" r="5" fill="url(#redball)" />
<circle cx="200" cy="160" r="5" fill="url(#redball)" />
<circle cx="180" cy="200" r="5" fill="url(#blueball)" />
<circle cx="180" cy="210" r="5" fill="url(#blueball)" />
<circle cx="190" cy="220" r="5" fill="url(#blueball)" />
<circle cx="240" cy="200" r="5" fill="url(#blueball)" />
<circle cx="210" cy="170" r="5" fill="url(#blueball)" />
<circle cx="200" cy="200" r="20" fill="url(#redball)" />
<circle cx="100" cy="200" r="20" fill="url(#redball)" />
<circle cx="200" cy="100" r="20" fill="url(#redball)" />
<circle cx="100" cy="100" r="20" fill="url(#redball)" />
<line x1="100" y1="200" x2="200" y2="200" stroke="black" />
<text x="130" y="200" fill="green" >6.0;9.0</text>
<circle cx="200" cy="200" r="20" fill="url(#redball)" />
<circle cx="100" cy="200" r="20" fill="url(#redball)" />
<circle cx="200" cy="100" r="20" fill="url(#redball)" />
<circle cx="100" cy="100" r="20" fill="url(#redball)" />
<line x1="100" y1="200" x2="200" y2="200" stroke="black" />
<text x="130" y="200" fill="green" >6.0;9.0</text>
<line x1="100" y1="100" x2="200" y2="100" stroke="black" />
<text x="130" y="100" fill="green" >8.0;5.0</text>
<circle cx="200" cy="200" r="20" fill="url(#redball)" />
<circle cx="100" cy="200" r="20" fill="url(#redball)" />
<circle cx="200" cy="100" r="20" fill="url(#redball)" />
<circle cx="100" cy="100" r="20" fill="url(#redball)" />
<line x1="100" y1="200" x2="200" y2="200" stroke="black" />
<text x="130" y="200" fill="green" >6.0;9.0</text>
<line x1="100" y1="100" x2="200" y2="100" stroke="black" />
<text x="130" y="100" fill="green" >8.0;5.0</text>
<line x1="100" y1="100" x2="100" y2="200" stroke="black" />
<text x="80" y="150" fill="green" >2.0;5.0</text>
<circle cx="200" cy="200" r="20" fill="url(#redball)" />
<circle cx="100" cy="200" r="20" fill="url(#redball)" />
<circle cx="200" cy="100" r="20" fill="url(#redball)" />
<circle cx="100" cy="100" r="20" fill="url(#redball)" />
<line x1="100" y1="200" x2="200" y2="200" stroke="black" />
<text x="130" y="200" fill="green" >6.0;9.0</text>
<line x1="100" y1="100" x2="200" y2="100" stroke="black" />
<text x="130" y="100" fill="green" >8.0;5.0</text>
<line x1="100" y1="100" x2="100" y2="200" stroke="black" />
<text x="80" y="150" fill="green" >2.0;5.0</text>
<line x1="200" y1="100" x2="100" y2="200" stroke="black" />
<text x="130" y="150" fill="green" >3.0;6.0</text>
<circle cx="200" cy="200" r="20" fill="url(#redball)" />
<circle cx="100" cy="200" r="20" fill="url(#redball)" />
<circle cx="200" cy="100" r="20" fill="url(#redball)" />
<circle cx="100" cy="100" r="20" fill="url(#redball)" />
<line x1="100" y1="200" x2="200" y2="200" stroke="black" />
<text x="130" y="200" fill="green" >6.0;9.0</text>
<line x1="100" y1="100" x2="200" y2="100" stroke="black" />
<text x="130" y="100" fill="green" >8.0;5.0</text>
<line x1="100" y1="100" x2="100" y2="200" stroke="black" />
<text x="80" y="150" fill="green" >2.0;5.0</text>
<line x1="200" y1="100" x2="100" y2="200" stroke="black" />
<text x="130" y="150" fill="green" >3.0;6.0</text>
<circle cx="200" cy="200" r="20" fill="url(#redball)" />
<circle cx="100" cy="200" r="20" fill="url(#redball)" />
<circle cx="200" cy="100" r="20" fill="url(#redball)" />
<circle cx="100" cy="100" r="20" fill="url(#redball)" />
<line x1="100" y1="200" x2="200" y2="200" stroke="black" />
<text x="130" y="200" fill="green" >6.0;9.0</text>
<circle cx="200" cy="200" r="20" fill="url(#redball)" />
<circle cx="100" cy="200" r="20" fill="url(#redball)" />
<circle cx="200" cy="100" r="20" fill="url(#redball)" />
<circle cx="100" cy="100" r="20" fill="url(#redball)" />
<line x1="100" y1="200" x2="200" y2="200" stroke="black" />
<text x="130" y="200" fill="green" >6.0;9.0</text>
<line x1="100" y1="100" x2="200" y2="100" stroke="black" />
<text x="130" y="100" fill="green" >8.0;5.0</text>
<circle cx="200" cy="200" r="20" fill="url(#redball)" />
<circle cx="100" cy="200" r="20" fill="url(#redball)" />
<circle cx="200" cy="100" r="20" fill="url(#redball)" />
<circle cx="100" cy="100" r="20" fill="url(#redball)" />
<line x1="100" y1="200" x2="200" y2="200" stroke="black" />
<text x="130" y="200" fill="green" >6.0;9.0</text>
<line x1="100" y1="100" x2="200" y2="100" stroke="black" />
<text x="130" y="100" fill="green" >8.0;5.0</text>
<line x1="100" y1="100" x2="100" y2="200" stroke="black" />
<text x="80" y="150" fill="green" >2.0;5.0</text>
<circle cx="200" cy="200" r="20" fill="url(#redball)" />
<circle cx="100" cy="200" r="20" fill="url(#redball)" />
<circle cx="200" cy="100" r="20" fill="url(#redball)" />
<circle cx="100" cy="100" r="20" fill="url(#redball)" />
<line x1="100" y1="200" x2="200" y2="200" stroke="black" />
<text x="130" y="200" fill="green" >6.0;9.0</text>
<line x1="100" y1="100" x2="200" y2="100" stroke="black" />
<text x="130" y="100" fill="green" >8.0;5.0</text>
<line x1="100" y1="100" x2="100" y2="200" stroke="black" />
<text x="80" y="150" fill="green" >2.0;5.0</text>
<line x1="200" y1="100" x2="100" y2="200" stroke="black" />
<text x="130" y="150" fill="green" >3.0;6.0</text>
<circle cx="200" cy="200" r="20" fill="url(#redball)" />
<circle cx="100" cy="200" r="20" fill="url(#redball)" />
<circle cx="200" cy="100" r="20" fill="url(#redball)" />
<circle cx="100" cy="100" r="20" fill="url(#redball)" />
<line x1="100" y1="200" x2="200" y2="200" stroke="black" />
<text x="130" y="200" fill="green" >6.0;9.0</text>
<line x1="100" y1="100" x2="200" y2="100" stroke="black" />
<text x="130" y="100" fill="green" >8.0;5.0</text>
<line x1="100" y1="100" x2="100" y2="200" stroke="black" />
<text x="80" y="150" fill="green" >2.0;5.0</text>
<line x1="200" y1="100" x2="100" y2="200" stroke="black" />
<text x="130" y="150" fill="green" >3.0;6.0</text>
<line x1="200" y1="100" x2="200" y2="200" stroke="black" />
<text x="180" y="150" fill="green" >8.0;4.0</text>
<circle cx="200" cy="200" r="20" fill="url(#redball)" />
<circle cx="100" cy="200" r="20" fill="url(#redball)" />
<circle cx="200" cy="100" r="20" fill="url(#redball)" />
<circle cx="100" cy="100" r="20" fill="url(#redball)" />
<line x1="100" y1="200" x2="200" y2="200" stroke="black" />
<text x="130" y="200" fill="green" >6.0;9.0</text>
<circle cx="200" cy="200" r="20" fill="url(#redball)" />
<circle cx="100" cy="200" r="20" fill="url(#redball)" />
<circle cx="200" cy="100" r="20" fill="url(#redball)" />
<circle cx="100" cy="100" r="20" fill="url(#redball)" />
<line x1="100" y1="200" x2="200" y2="200" stroke="black" />
<text x="130" y="200" fill="green" >6.0;9.0</text>
<line x1="100" y1="100" x2="200" y2="100" stroke="black" />
<text x="130" y="100" fill="green" >8.0;5.0</text>
<circle cx="200" cy="200" r="20" fill="url(#redball)" />
<circle cx="100" cy="200" r="20" fill="url(#redball)" />
<circle cx="200" cy="100" r="20" fill="url(#redball)" />
<circle cx="100" cy="100" r="20" fill="url(#redball)" />
<line x1="100" y1="200" x2="200" y2="200" stroke="black" />
<text x="130" y="200" fill="green" >6.0;9.0</text>
<line x1="100" y1="100" x2="200" y2="100" stroke="black" />
<text x="130" y="100" fill="green" >8.0;5.0</text>
<line x1="100" y1="100" x2="100" y2="200" stroke="black" />
<text x="80" y="150" fill="green" >2.0;5.0</text>
<circle cx="200" cy="200" r="20" fill="url(#redball)" />
<circle cx="100" cy="200" r="20" fill="url(#redball)" />
<circle cx="200" cy="100" r="20" fill="url(#redball)" />
<circle cx="100" cy="100" r="20" fill="url(#redball)" />
<line x1="100" y1="200" x2="200" y2="200" stroke="black" />
<text x="130" y="200" fill="green" >6.0;9.0</text>
<line x1="100" y1="100" x2="200" y2="100" stroke="black" />
<text x="130" y="100" fill="green" >8.0;5.0</text>
<line x1="100" y1="100" x2="100" y2="200" stroke="black" />
<text x="80" y="150" fill="green" >2.0;5.0</text>
<line x1="200" y1="100" x2="100" y2="200" stroke="black" />
<text x="130" y="150" fill="green" >3.0;6.0</text>
<circle cx="200" cy="200" r="20" fill="url(#redball)" />
<circle cx="100" cy="200" r="20" fill="url(#redball)" />
<circle cx="200" cy="100" r="20" fill="url(#redball)" />
<circle cx="100" cy="100" r="20" fill="url(#redball)" />
<line x1="100" y1="200" x2="200" y2="200" stroke="black" />
<text x="130" y="200" fill="green" >6.0;9.0</text>
<line x1="100" y1="100" x2="200" y2="100" stroke="black" />
<text x="130" y="100" fill="green" >8.0;5.0</text>
<line x1="100" y1="100" x2="100" y2="200" stroke="black" />
<text x="80" y="150" fill="green" >2.0;5.0</text>
<line x1="200" y1="100" x2="100" y2="200" stroke="black" />
<text x="130" y="150" fill="green" >3.0;6.0</text>
<line x1="200" y1="100" x2="200" y2="200" stroke="black" />
<text x="180" y="150" fill="green" >8.0;4.0</text>
  

<defs>
    <radialGradient id="redball" cx="30%" cy="30%" r="100%" fx="30%" fy="30%">
      <stop offset="0%" style="stop-color:rgb(255,250,250)" />
      <stop offset="3%" style="stop-color:rgb(255,250,250)" />
      <stop offset="7%" style="stop-color:rgb(255,160,160)" />
      <stop offset="70%" style="stop-color:rgb(255,0,0)" />
      <stop offset="100%" style="stop-color:rgb(255,0,0)" />
    </radialGradient>
    <radialGradient id="greenball" cx="30%" cy="30%" r="100%" fx="30%" fy="30%">
      <stop offset="0%" style="stop-color:rgb(250,255,250)" />
      <stop offset="3%" style="stop-color:rgb(250,255,250)" />
      <stop offset="7%" style="stop-color:rgb(160,255,160)" />
      <stop offset="70%" style="stop-color:rgb(0,255,0)" />
      <stop offset="100%" style="stop-color:rgb(0,255,0)" />
    </radialGradient>
    <radialGradient id="blueball" cx="30%" cy="30%" r="100%" fx="30%" fy="30%">
      <stop offset="0%" style="stop-color:rgb(250,250,255)" />
      <stop offset="3%" style="stop-color:rgb(250,250,255)" />
      <stop offset="7%" style="stop-color:rgb(160,160,255)" />
      <stop offset="70%" style="stop-color:rgb(0,0,255)" />
      <stop offset="100%" style="stop-color:rgb(0,255,0)" />
    </radialGradient>
    <radialGradient id="yellowball" cx="30%" cy="30%" r="100%" fx="30%" fy="30%">
      <stop offset="0%" style="stop-color:rgb(255,255,250)" />
      <stop offset="3%" style="stop-color:rgb(255,255,250)" />
      <stop offset="7%" style="stop-color:rgb(255,255,160)" />
      <stop offset="70%" style="stop-color:rgb(255,255,0)" />
      <stop offset="100%" style="stop-color:rgb(255,255,0)" />
    </radialGradient>
    <radialGradient id="greyball" cx="30%" cy="30%" r="100%" fx="30%" fy="30%">
      <stop offset="0%" style="stop-color:rgb(250,250,250)" />
      <stop offset="3%" style="stop-color:rgb(250,250,250)" />
      <stop offset="7%" style="stop-color:rgb(160,160,160)" />
      <stop offset="70%" style="stop-color:rgb(100,100,100)" />
      <stop offset="100%" style="stop-color:rgb(100,100,100)" />
    </radialGradient>
  </defs>


</svg>
