<?xml version="1.0" encoding="utf-8"?>
<svg xmlns="http://www.w3.org/2000/svg" version="1.1" width="1000" height="800">

<circle cx="400" cy="400" r="15" fill="url(#greenball)" />
<circle cx="100" cy="400" r="15" fill="url(#greenball)" />
<circle cx="300" cy="300" r="15" fill="url(#greenball)" />
<circle cx="200" cy="300" r="15" fill="url(#greenball)" />
<circle cx="100" cy="100" r="15" fill="url(#greenball)" />
<circle cx="300" cy="200" r="15" fill="url(#greenball)" />
<circle cx="400" cy="100" r="15" fill="url(#greenball)" />
<circle cx="200" cy="200" r="15" fill="url(#greenball)" />
<line x1="300" y1="300" x2="400" y2="400" stroke="black" />
<text x="340" y="350" fill="red" >3</text>
<text x="350" y="350" fill="red" >;</text>
<text x="360" y="350" fill="red" >4</text>
<line x1="200" y1="200" x2="300" y2="200" stroke="black" />
<text x="240" y="200" fill="red" >6</text>
<text x="250" y="200" fill="red" >;</text>
<text x="260" y="200" fill="red" >4</text>
<line x1="100" y1="100" x2="200" y2="200" stroke="black" />
<text x="140" y="150" fill="red" >9</text>
<text x="150" y="150" fill="red" >;</text>
<text x="160" y="150" fill="red" >4</text>
<line x1="100" y1="100" x2="100" y2="400" stroke="black" />
<text x="90" y="250" fill="red" >2</text>
<text x="100" y="250" fill="red" >;</text>
<text x="110" y="250" fill="red" >3</text>
<line x1="100" y1="100" x2="400" y2="100" stroke="black" />
<text x="240" y="100" fill="red" >5</text>
<text x="250" y="100" fill="red" >;</text>
<text x="260" y="100" fill="red" >5</text>
<line x1="400" y1="100" x2="300" y2="200" stroke="black" />
<text x="340" y="150" fill="red" >7</text>
<text x="350" y="150" fill="red" >;</text>
<text x="360" y="150" fill="red" >2</text>
<line x1="400" y1="100" x2="400" y2="400" stroke="black" />
<text x="390" y="250" fill="red" >6</text>
<text x="400" y="250" fill="red" >;</text>
<text x="410" y="250" fill="red" >3</text>
<line x1="200" y1="200" x2="200" y2="300" stroke="black" />
<text x="190" y="250" fill="red" >9</text>
<text x="200" y="250" fill="red" >;</text>
<text x="210" y="250" fill="red" >7</text>
<line x1="300" y1="200" x2="300" y2="300" stroke="black" />
<text x="290" y="250" fill="red" >1</text>
<text x="300" y="250" fill="red" >;</text>
<text x="310" y="250" fill="red" >2</text>
<line x1="100" y1="400" x2="400" y2="400" stroke="black" />
<text x="240" y="400" fill="red" >4</text>
<text x="250" y="400" fill="red" >;</text>
<text x="260" y="400" fill="red" >4</text>
<line x1="200" y1="300" x2="100" y2="400" stroke="black" />
<text x="140" y="350" fill="red" >2</text>
<text x="150" y="350" fill="red" >;</text>
<text x="160" y="350" fill="red" >7</text>
<line x1="200" y1="300" x2="300" y2="300" stroke="black" />
<text x="240" y="300" fill="red" >5</text>
<text x="250" y="300" fill="red" >;</text>
<text x="260" y="300" fill="red" >9</text>
<circle cx="400" cy="400" r="20" fill="url(#greenball)" />
<circle cx="100" cy="400" r="20" fill="url(#greenball)" />
<circle cx="300" cy="300" r="20" fill="url(#greenball)" />
<circle cx="200" cy="300" r="20" fill="url(#greenball)" />
<circle cx="100" cy="100" r="20" fill="url(#greenball)" />
<circle cx="300" cy="200" r="20" fill="url(#greenball)" />
<circle cx="400" cy="100" r="20" fill="url(#greenball)" />
<circle cx="200" cy="200" r="20" fill="url(#greenball)" />
  

<defs>
    <radialGradient id="redball" cx="30%" cy="30%" r="100%" fx="30%" fy="30%">
      <stop offset="0%" style="stop-color:rgb(255,250,250)" />
      <stop offset="3%" style="stop-color:rgb(255,250,250)" />
      <stop offset="7%" style="stop-color:rgb(255,160,160)" />
      <stop offset="70%" style="stop-color:rgb(255,0,0)" />
      <stop offset="100%" style="stop-color:rgb(255,0,0)" />
    </radialGradient>
    <radialGradient id="greenball" cx="30%" cy="30%" r="100%" fx="30%" fy="30%">
      <stop offset="0%" style="stop-color:rgb(250,255,250)" />
      <stop offset="3%" style="stop-color:rgb(250,255,250)" />
      <stop offset="7%" style="stop-color:rgb(160,255,160)" />
      <stop offset="70%" style="stop-color:rgb(0,255,0)" />
      <stop offset="100%" style="stop-color:rgb(0,255,0)" />
    </radialGradient>
    <radialGradient id="blueball" cx="30%" cy="30%" r="100%" fx="30%" fy="30%">
      <stop offset="0%" style="stop-color:rgb(250,250,255)" />
      <stop offset="3%" style="stop-color:rgb(250,250,255)" />
      <stop offset="7%" style="stop-color:rgb(160,160,255)" />
      <stop offset="70%" style="stop-color:rgb(0,0,255)" />
      <stop offset="100%" style="stop-color:rgb(0,255,0)" />
    </radialGradient>
    <radialGradient id="yellowball" cx="30%" cy="30%" r="100%" fx="30%" fy="30%">
      <stop offset="0%" style="stop-color:rgb(255,255,250)" />
      <stop offset="3%" style="stop-color:rgb(255,255,250)" />
      <stop offset="7%" style="stop-color:rgb(255,255,160)" />
      <stop offset="70%" style="stop-color:rgb(255,255,0)" />
      <stop offset="100%" style="stop-color:rgb(255,255,0)" />
    </radialGradient>
    <radialGradient id="greyball" cx="30%" cy="30%" r="100%" fx="30%" fy="30%">
      <stop offset="0%" style="stop-color:rgb(250,250,250)" />
      <stop offset="3%" style="stop-color:rgb(250,250,250)" />
      <stop offset="7%" style="stop-color:rgb(160,160,160)" />
      <stop offset="70%" style="stop-color:rgb(100,100,100)" />
      <stop offset="100%" style="stop-color:rgb(100,100,100)" />
    </radialGradient>
  </defs>


</svg>
